# xmcd
#
# Track frame offsets:
#	150
#	74655
#	154827
#	211927
#	243142
#	282747
#	286362
#	317950
#
# Disc length: 4672 seconds
#
# Revision: 0
# Processed by: cddbd v1.5.2PL0 Copyright (c) Steve Scherf et al.
# Submitted via: EasyCDDAExtractor 16.0.9.1
#
DISCID=7f123e08
DTITLE=The Orb - Auntie Aubrey's Excursions Beyond the Call of Duty 2CD
DYEAR=1996
DGENRE=
TTITLE0=Material - Praying Mantra (Praying Mantra mix)
TTITLE1=Killing Joke - Democracy (The Russian Tundra mix)
TTITLE2=Keiichi Suzuki - Satellite Serenade (Trans Asian Express mix)
TTITLE3=Zodiac Youth - Fast Forward the Future (Bucket and Bong mix)
TTITLE4=Primal Scream - Higher Than the Sun (Higher Than the Kite mix)
TTITLE5=Ready Made - Ambient State
TTITLE6=Wir - So and Slow It Grows (The Orb in Atlas mix)
TTITLE7=Yasuaki Shimizu - Secret Squirrel
EXTD=
EXTT0=
EXTT1=
EXTT2=
EXTT3=
EXTT4=
EXTT5=
EXTT6=
EXTT7=
PLAYORDER=
